# xmcd
#
# Track frame offsets: 
#        150
#        3697
#        16558
#        27011
#        45051
#        59189
#        75072
#        90983
#        104562
#        122785
#
# Disc length: 1668 seconds
#
# Revision: 0
# Processed by: cddbd v1.5.2PL0 Copyright (c) Steve Scherf et al.
# Submitted via: ExactAudioCopy v0.95b4
#
DISCID=6406820a
DTITLE=Tomi-O - Live and Primal
DYEAR=2006
DGENRE=Blues
TTITLE0=Intro
TTITLE1=Folsom Prison Blues
TTITLE2=Foggy Mountain Breakdown
TTITLE3=Long Way From Home
TTITLE4=Too Many Trips
TTITLE5=I'm So High
TTITLE6=Stringbean
TTITLE7=Along Came A Spider
TTITLE8=Bucktooth Holler
TTITLE9=Outro
EXTD=
EXTT0=
EXTT1=
EXTT2=
EXTT3=
EXTT4=
EXTT5=
EXTT6=
EXTT7=
EXTT8=
EXTT9=
PLAYORDER=
